#N canvas 2562 18 636 1015 12;
#X obj 131 169 bng 15 250 50 0 empty empty empty 0 -6 0 8 -262144 -1
-1;
#X floatatom 203 205 5 0 0 0 - - -, f 5;
#X obj 164 239 del;
#X msg 131 265 1;
#X msg 164 265 0;
#X text 139 142 start;
#X obj 43 269 noise~;
#X obj 44 338 *~;
#X obj 103 476 *~ 0.99;
#X floatatom 170 452 5 0 0 0 - - -, f 5;
#X obj 288 766 dac~, f 23;
#X obj 43 579 delwrite~ buffer 1000;
#X obj 224 339 *~ 0.5;
#X obj 311 328 z~ 1;
#X obj 312 355 *~ 0.5;
#X obj 225 392 +~;
#X floatatom 203 137 7 0 0 0 - - -, f 7;
#X text 262 139 Frequency (Hz.);
#X text 367 325 Delay by 1 Sample;
#X text 369 370 calculates average;
#X text 219 451 damping factor (between 0 and 1);
#X text 254 205 duration of one period (ms);
#X obj 224 296 delread~ buffer 100;
#X obj 286 546 reverb;
#X obj 128 93 metro 2000;
#X obj 126 46 tgl 15 0 empty empty empty 17 7 0 10 -262144 -1 -1 0
1;
#X obj 203 174 expr 1000 / $f1;
#X connect 0 0 2 0;
#X connect 0 0 3 0;
#X connect 1 0 2 1;
#X connect 1 0 22 0;
#X connect 2 0 4 0;
#X connect 3 0 7 1;
#X connect 4 0 7 1;
#X connect 6 0 7 0;
#X connect 7 0 11 0;
#X connect 8 0 11 0;
#X connect 8 0 23 0;
#X connect 9 0 8 1;
#X connect 12 0 15 0;
#X connect 13 0 14 0;
#X connect 14 0 15 1;
#X connect 15 0 8 0;
#X connect 16 0 26 0;
#X connect 22 0 12 0;
#X connect 22 0 13 0;
#X connect 23 0 10 0;
#X connect 23 1 10 1;
#X connect 24 0 0 0;
#X connect 25 0 24 0;
#X connect 26 0 1 0;
