#N canvas 3202 18 636 1015 12;
#X obj 159 400 delread~ dll;
#X obj 284 399 hsl 128 15 0 0.95 0 0 empty empty empty -2 -8 0 10 -262144
-1 -1 0 1;
#X floatatom 280 427 5 0 0 0 - - -, f 5;
#X obj 161 314 hsl 128 15 50 5000 1 0 empty empty empty -2 -8 0 10
-262144 -1 -1 0 1;
#X floatatom 161 338 5 0 0 0 - - -, f 5;
#X obj 161 366 line;
#X obj 157 515 samphold~;
#X obj 160 471 *~;
#X obj 156 570 delwrite~ dll 5000;
#X obj 307 474 phasor~ 43000;
#X obj 43 290 inlet~;
#X obj 68 654 outlet~;
#X connect 0 0 7 0;
#X connect 1 0 2 0;
#X connect 2 0 7 1;
#X connect 3 0 4 0;
#X connect 4 0 5 0;
#X connect 5 0 0 0;
#X connect 6 0 8 0;
#X connect 6 0 11 0;
#X connect 7 0 6 0;
#X connect 9 0 6 1;
#X connect 10 0 8 0;
