#N canvas 1922 20 1916 1008 12;
#X obj 159 400 delread~ dll;
#X floatatom 280 427 5 0 0 0 - - -, f 5;
#X floatatom 161 338 5 0 0 0 - - -, f 5;
#X obj 161 366 line;
#X obj 157 515 samphold~;
#X obj 160 471 *~;
#X obj 79 570 delwrite~ dll 5000;
#X obj 307 474 phasor~ 43000;
#X obj 76 353 inlet~;
#X obj 461 576 outlet~;
#X obj 351 164 inlet;
#X obj 444 153 inlet;
#X connect 0 0 5 0;
#X connect 1 0 5 1;
#X connect 2 0 3 0;
#X connect 3 0 0 0;
#X connect 4 0 6 0;
#X connect 4 0 9 0;
#X connect 5 0 4 0;
#X connect 7 0 4 1;
#X connect 8 0 6 0;
#X connect 10 0 2 0;
#X connect 11 0 1 0;
