#N canvas 2882 18 956 1015 12;
#X obj 1138 913 *~, f 50;
#X obj 1285 400 bng 15 250 50 0 empty empty empty 17 7 0 10 -262144
-1 -1;
#X obj 1138 694 curve~, f 12;
#X obj 1490 819 cycle~ 120;
#X floatatom 170 184 5 0 0 0 - - -, f 5;
#X obj 1139 611 pack \$1;
#X msg 1139 651 1 0.2 0 0 \$1 -0.5;
#X text 168 130 Decay;
#X obj 1489 680 pack \$1 \$2 \$3, f 14;
#X obj 1489 775 line~;
#X obj 1583 580 +;
#X floatatom 1580 619 5 0 0 0 - - -, f 5;
#X floatatom 397 179 5 0 0 0 - - -, f 5;
#X msg 1489 722 \$1 \, \$2 \$3;
#X text 73 131 pitch;
#X obj 170 153 hsl 64 15 0 1000 0 1 empty empty empty -2 -8 0 10 -262144
-1 -1 2850 1;
#X obj 398 152 hsl 67 15 0 500 0 1 empty empty empty -2 -8 0 10 -262144
-1 -1 550 1;
#X obj 270 155 hsl 60 15 0 500 0 1 empty empty empty -2 -8 0 10 -262144
-1 -1 900 1;
#X obj 74 154 hsl 57 15 0 500 0 1 empty empty empty -2 -8 0 10 -262144
-1 -1 600 1;
#X floatatom 74 180 5 0 0 0 - - -, f 5;
#X floatatom 1722 577 5 0 0 0 - - -, f 5;
#X floatatom 271 181 5 0 0 0 - - -, f 5;
#X obj 1284 362 inlet;
#X obj 1137 1090 outlet~;
#X text 396 129 Pitchdrop decay;
#X floatatom 1475 570 5 0 0 0 - - -, f 5;
#X obj 726 723 noise~;
#X obj 797 724 curve~, f 12;
#X obj 798 641 pack \$1;
#X msg 798 681 1 0.2 0 0 \$1 -0.5;
#X obj 786 856 *~;
#X floatatom 556 185 5 0 0 0 - - -, f 5;
#X obj 557 157 hsl 64 15 0 1000 0 1 empty empty empty -2 -8 0 10 -262144
-1 -1 4800 1;
#X text 554 126 Noise decay;
#X obj 815 1148 *~;
#X floatatom 659 187 5 0 0 0 - - -, f 5;
#X obj 660 158 hsl 58 15 0 1 0 1 empty empty empty -2 -8 0 10 -262144
-1 -1 0 1;
#X text 659 126 Noise amt;
#X obj 852 889 sig~;
#X text 659 126 Noise amt;
#X floatatom 754 181 9 0 0 0 - - -, f 9;
#X obj 755 150 hsl 58 15 200 20000 1 1 empty empty empty -2 -8 0 10
-262144 -1 -1 2950 1;
#X text 750 125 bp noise f;
#X floatatom 848 180 5 0 0 0 - - -, f 5;
#X obj 848 148 hsl 58 15 0 100 0 1 empty empty empty -2 -8 0 10 -262144
-1 -1 4650 1;
#X text 844 124 bp noise q;
#X floatatom 846 1121 5 0 0 0 - - -, f 5;
#X text 271 131 drop amount;
#X obj 74 221 s pitch\$0;
#X obj 1473 413 r pitch\$0;
#X obj 1603 412 r pitchd_amt\$0;
#X obj 1721 443 r pitchd_duration\$0;
#X obj 726 507 r noise_decay\$0;
#X obj 1138 543 r decay\$0;
#X obj 852 860 r filter_f\$0;
#X obj 921 915 r filter_q\$0;
#X obj 170 221 s decay\$0;
#X obj 271 220 s pitchd_amt\$0;
#X obj 397 221 s pitchd_duration\$0;
#X obj 556 328 s noise_decay\$0;
#X obj 656 275 s noise_amt\$0;
#X obj 772 335 s filter_f\$0;
#X obj 879 259 s filter_q\$0;
#X obj 830 1076 r noise_amt\$0;
#X obj 784 967 bob~, f 20;
#X connect 0 0 23 0;
#X connect 1 0 5 0;
#X connect 1 0 8 0;
#X connect 1 0 11 0;
#X connect 1 0 20 0;
#X connect 1 0 25 0;
#X connect 1 0 10 0;
#X connect 1 0 28 0;
#X connect 2 0 0 0;
#X connect 3 0 0 1;
#X connect 4 0 56 0;
#X connect 5 0 6 0;
#X connect 6 0 2 0;
#X connect 8 0 13 0;
#X connect 9 0 3 0;
#X connect 10 0 11 0;
#X connect 11 0 8 0;
#X connect 12 0 58 0;
#X connect 13 0 9 0;
#X connect 15 0 4 0;
#X connect 16 0 12 0;
#X connect 17 0 21 0;
#X connect 18 0 19 0;
#X connect 19 0 48 0;
#X connect 20 0 8 2;
#X connect 21 0 57 0;
#X connect 22 0 1 0;
#X connect 25 0 8 1;
#X connect 26 0 30 0;
#X connect 27 0 30 1;
#X connect 28 0 29 0;
#X connect 29 0 27 0;
#X connect 30 0 64 0;
#X connect 31 0 59 0;
#X connect 32 0 31 0;
#X connect 34 0 23 0;
#X connect 35 0 60 0;
#X connect 36 0 35 0;
#X connect 38 0 64 1;
#X connect 40 0 61 0;
#X connect 41 0 40 0;
#X connect 43 0 62 0;
#X connect 44 0 43 0;
#X connect 49 0 10 0;
#X connect 49 0 25 0;
#X connect 50 0 10 1;
#X connect 51 0 20 0;
#X connect 52 0 28 0;
#X connect 53 0 5 0;
#X connect 54 0 38 0;
#X connect 55 0 64 2;
#X connect 63 0 34 1;
#X connect 63 0 46 0;
#X connect 64 0 34 0;
#X coords 0 -1 1 1 906 87 2 54 121;
