#N canvas 2 613 1916 1015 12;
#X obj 129 753 dac~;
#X obj 55 25 tgl 15 0 empty empty empty 17 7 0 10 -262144 -1 -1 0 1
;
#X obj 490 473 delread~ dll;
#X obj 76 108 bng 15 250 50 0 empty empty empty 17 7 0 10 -262144 -1
-1;
#X obj 615 472 hsl 128 15 0 0.95 0 0 empty empty empty -2 -8 0 10 -262144
-1 -1 0 1;
#X floatatom 611 500 5 0 0 0 - - -, f 5;
#X obj 492 387 hsl 128 15 50 5000 1 0 empty empty empty -2 -8 0 10
-262144 -1 -1 0 1;
#X floatatom 492 411 5 0 0 0 - - -, f 5;
#X obj 492 439 line;
#X obj 488 588 samphold~;
#X obj 491 544 *~;
#X obj 487 643 delwrite~ dll 5000;
#X obj 638 547 phasor~ 43000;
#X obj 58 58 metro 500;
#N canvas 2 613 1916 1015 Drum 0;
#X obj 931 713 *~, f 50;
#X obj 1140 314 bng 15 250 50 0 empty empty empty 17 7 0 10 -262144
-1 -1;
#X obj 930 494 curve~, f 12;
#X obj 1282 619 cycle~ 120;
#X floatatom 342 123 5 0 0 0 - - -, f 5;
#X obj 931 411 pack \$1;
#X msg 931 451 1 0.2 0 0 \$1 -0.5;
#X text 340 61 Decay;
#X obj 1281 480 pack \$1 \$2 \$3, f 14;
#X obj 1281 575 line~;
#X obj 1375 380 +;
#X floatatom 1372 419 5 0 0 0 - - -, f 5;
#X floatatom 571 119 5 0 0 0 - - -, f 5;
#X msg 1281 522 \$1 \, \$2 \$3;
#X text 252 64 pitch;
#X text 438 64 pitchdrop amount;
#X obj 342 92 hsl 64 15 0 1000 0 1 empty empty empty -2 -8 0 10 -262144
-1 -1 3100 1;
#X obj 572 92 hsl 67 15 0 500 0 1 empty empty empty -2 -8 0 10 -262144
-1 -1 650 1;
#X obj 442 92 hsl 60 15 0 500 0 1 empty empty empty -2 -8 0 10 -262144
-1 -1 4200 1;
#X obj 250 92 hsl 57 15 0 500 0 1 empty empty empty -2 -8 0 10 -262144
-1 -1 2450 1;
#X obj 256 271 s pitch;
#X obj 1325 294 r pitch;
#X floatatom 251 129 5 0 0 0 - - -, f 5;
#X obj 342 266 s decay;
#X obj 930 343 r decay;
#X obj 444 264 s pitchd_amt;
#X obj 1393 292 r pitchd_amt;
#X obj 1492 289 r pitchd_duration;
#X obj 573 269 s pitchd_duration;
#X floatatom 1514 377 5 0 0 0 - - -, f 5;
#X floatatom 443 118 5 0 0 0 - - -, f 5;
#X obj 1136 243 inlet;
#X obj 932 762 outlet~;
#X text 570 64 Pitchdrop decay;
#X floatatom 1267 370 5 0 0 0 - - -, f 5;
#X obj 518 523 noise~;
#X obj 589 524 curve~, f 12;
#X obj 590 441 pack \$1;
#X msg 590 481 1 0.2 0 0 \$1 -0.5;
#X obj 578 656 *~;
#X obj 589 373 r noise_decay;
#X floatatom 703 127 5 0 0 0 - - -, f 5;
#X obj 703 96 hsl 64 15 0 1000 0 1 empty empty empty -2 -8 0 10 -262144
-1 -1 1450 1;
#X text 701 65 Noise decay;
#X obj 703 270 s noise_decay;
#X obj 598 701 *~;
#X floatatom 810 124 5 0 0 0 - - -, f 5;
#X obj 810 93 hsl 58 15 0 1 0 1 empty empty empty -2 -8 0 10 -262144
-1 -1 650 1;
#X text 809 62 Noise amt;
#X obj 810 267 s noise_amt;
#X obj 664 597 r noise_amt;
#X connect 0 0 32 0;
#X connect 1 0 5 0;
#X connect 1 0 8 0;
#X connect 1 0 11 0;
#X connect 1 0 29 0;
#X connect 1 0 34 0;
#X connect 1 0 10 0;
#X connect 1 0 37 0;
#X connect 2 0 0 0;
#X connect 3 0 0 1;
#X connect 4 0 23 0;
#X connect 5 0 6 0;
#X connect 6 0 2 0;
#X connect 8 0 13 0;
#X connect 9 0 3 0;
#X connect 10 0 11 0;
#X connect 11 0 8 0;
#X connect 12 0 28 0;
#X connect 13 0 9 0;
#X connect 16 0 4 0;
#X connect 17 0 12 0;
#X connect 18 0 30 0;
#X connect 19 0 22 0;
#X connect 21 0 10 0;
#X connect 21 0 34 0;
#X connect 22 0 20 0;
#X connect 24 0 5 0;
#X connect 26 0 10 1;
#X connect 27 0 29 0;
#X connect 29 0 8 2;
#X connect 30 0 25 0;
#X connect 31 0 1 0;
#X connect 34 0 8 1;
#X connect 35 0 39 0;
#X connect 36 0 39 1;
#X connect 37 0 38 0;
#X connect 38 0 36 0;
#X connect 39 0 45 0;
#X connect 40 0 37 0;
#X connect 41 0 44 0;
#X connect 42 0 41 0;
#X connect 45 0 32 0;
#X connect 46 0 49 0;
#X connect 47 0 46 0;
#X connect 50 0 45 1;
#X coords 0 -1 1 1 904 141 1 228 37;
#X restore 119 179 pd Drum;
#X connect 1 0 13 0;
#X connect 2 0 10 0;
#X connect 3 0 14 0;
#X connect 4 0 5 0;
#X connect 5 0 10 1;
#X connect 6 0 7 0;
#X connect 7 0 8 0;
#X connect 8 0 2 0;
#X connect 9 0 11 0;
#X connect 9 0 0 0;
#X connect 9 0 0 1;
#X connect 10 0 9 0;
#X connect 12 0 9 1;
#X connect 13 0 3 0;
#X connect 14 0 0 0;
#X connect 14 0 11 0;
#X connect 14 0 0 1;
