#N canvas 1922 18 1916 1015 12;
#X obj 1138 913 *~, f 50;
#X obj 1285 400 bng 15 250 50 0 empty empty empty 17 7 0 10 -262144
-1 -1;
#X obj 1138 694 curve~, f 12;
#X obj 1490 819 cycle~ 120;
#X floatatom 170 184 5 0 0 0 - - -, f 5;
#X obj 1139 611 pack \$1;
#X msg 1139 651 1 0.2 0 0 \$1 -0.5;
#X text 168 130 Decay;
#X obj 1489 680 pack \$1 \$2 \$3, f 14;
#X obj 1489 775 line~;
#X obj 1583 580 +;
#X floatatom 1580 619 5 0 0 0 - - -, f 5;
#X floatatom 397 179 5 0 0 0 - - -, f 5;
#X msg 1489 722 \$1 \, \$2 \$3;
#X text 73 131 pitch;
#X obj 170 153 hsl 64 15 0 1000 0 1 empty empty empty -2 -8 0 10 -262144
-1 -1 2750 1;
#X obj 398 152 hsl 67 15 0 500 0 1 empty empty empty -2 -8 0 10 -262144
-1 -1 550 1;
#X obj 270 155 hsl 60 15 0 500 0 1 empty empty empty -2 -8 0 10 -262144
-1 -1 1300 1;
#X obj 74 154 hsl 57 15 0 500 0 1 empty empty empty -2 -8 0 10 -262144
-1 -1 800 1;
#X obj 74 221 s pitch;
#X obj 1473 413 r pitch;
#X floatatom 74 180 5 0 0 0 - - -, f 5;
#X obj 170 221 s decay;
#X obj 1138 543 r decay;
#X obj 271 220 s pitchd_amt;
#X obj 1541 411 r pitchd_amt;
#X obj 1721 443 r pitchd_duration;
#X obj 397 221 s pitchd_duration;
#X floatatom 1722 577 5 0 0 0 - - -, f 5;
#X floatatom 271 181 5 0 0 0 - - -, f 5;
#X obj 1284 362 inlet;
#X obj 1137 1090 outlet~;
#X text 396 129 Pitchdrop decay;
#X floatatom 1475 570 5 0 0 0 - - -, f 5;
#X obj 726 723 noise~;
#X obj 797 724 curve~, f 12;
#X obj 798 641 pack \$1;
#X msg 798 681 1 0.2 0 0 \$1 -0.5;
#X obj 786 856 *~;
#X obj 797 573 r noise_decay;
#X floatatom 556 185 5 0 0 0 - - -, f 5;
#X obj 556 154 hsl 64 15 0 1000 0 1 empty empty empty -2 -8 0 10 -262144
-1 -1 850 1;
#X text 554 126 Noise decay;
#X obj 556 328 s noise_decay;
#X obj 815 1148 *~;
#X floatatom 663 182 5 0 0 0 - - -, f 5;
#X obj 663 152 hsl 58 15 0 1 0 1 empty empty empty -2 -8 0 10 -262144
-1 -1 2200 1;
#X text 659 126 Noise amt;
#X obj 663 325 s noise_amt;
#X obj 893 1025 r noise_amt;
#X obj 925 916 r filter_q;
#X obj 875 857 r filter_f;
#X obj 875 886 sig~;
#X text 659 126 Noise amt;
#X floatatom 754 181 9 0 0 0 - - -, f 9;
#X obj 755 150 hsl 58 15 200 20000 1 1 empty empty empty -2 -8 0 10
-262144 -1 -1 4450 1;
#X text 750 125 bp noise f;
#X floatatom 848 180 5 0 0 0 - - -, f 5;
#X obj 848 148 hsl 58 15 0 100 0 1 empty empty empty -2 -8 0 10 -262144
-1 -1 1050 1;
#X text 844 124 bp noise q;
#X obj 792 983 vcf~ 1, f 12;
#X obj 754 328 s filter_f;
#X obj 846 326 s filter_q;
#X floatatom 889 1072 5 0 0 0 - - -, f 5;
#X text 271 131 drop amount;
#X connect 0 0 31 0;
#X connect 1 0 5 0;
#X connect 1 0 8 0;
#X connect 1 0 11 0;
#X connect 1 0 28 0;
#X connect 1 0 33 0;
#X connect 1 0 10 0;
#X connect 1 0 36 0;
#X connect 2 0 0 0;
#X connect 3 0 0 1;
#X connect 4 0 22 0;
#X connect 5 0 6 0;
#X connect 6 0 2 0;
#X connect 8 0 13 0;
#X connect 9 0 3 0;
#X connect 10 0 11 0;
#X connect 11 0 8 0;
#X connect 12 0 27 0;
#X connect 13 0 9 0;
#X connect 15 0 4 0;
#X connect 16 0 12 0;
#X connect 17 0 29 0;
#X connect 18 0 21 0;
#X connect 20 0 10 0;
#X connect 20 0 33 0;
#X connect 21 0 19 0;
#X connect 23 0 5 0;
#X connect 25 0 10 1;
#X connect 26 0 28 0;
#X connect 28 0 8 2;
#X connect 29 0 24 0;
#X connect 30 0 1 0;
#X connect 33 0 8 1;
#X connect 34 0 38 0;
#X connect 35 0 38 1;
#X connect 36 0 37 0;
#X connect 37 0 35 0;
#X connect 38 0 60 0;
#X connect 39 0 36 0;
#X connect 40 0 43 0;
#X connect 41 0 40 0;
#X connect 44 0 31 0;
#X connect 45 0 48 0;
#X connect 46 0 45 0;
#X connect 49 0 44 1;
#X connect 49 0 63 0;
#X connect 50 0 60 2;
#X connect 51 0 52 0;
#X connect 52 0 60 1;
#X connect 54 0 61 0;
#X connect 55 0 54 0;
#X connect 57 0 62 0;
#X connect 58 0 57 0;
#X connect 60 0 44 0;
#X coords 0 -1 1 1 906 87 1 54 121;
