#N canvas 1922 18 1916 1015 12;
#X obj 451 1229 dac~, f 35;
#X obj 137 140 tgl 15 0 empty empty empty 17 7 0 10 -262144 -1 -1 1
1;
#X obj 139 235 bng 15 250 50 0 empty empty empty 17 7 0 10 -262144
-1 -1;
#X obj 1066 641 drums 2;
#X obj 150 642 drums 1;
#X obj 725 1048 *~;
#X obj 724 901 vsl 15 128 0.01 1 1 1 empty empty empty 0 -9 0 10 -262144
-1 -1 5500 1;
#X obj 463 1045 *~, f 4;
#X obj 459 895 vsl 15 128 0.01 1 1 1 empty empty empty 0 -9 0 10 -262144
-1 -1 9200 1;
#X obj 760 1047 *~;
#X obj 1065 840 reverb;
#X obj 153 447 bng 15 250 50 0 empty empty empty 17 7 0 10 -262144
-1 -1;
#X obj 264 449 bng 15 250 50 0 empty empty empty 17 7 0 10 -262144
-1 -1;
#X obj 207 448 bng 15 250 50 0 empty empty empty 17 7 0 10 -262144
-1 -1;
#X floatatom 151 331 5 0 0 0 - - -, f 5;
#X obj 153 395 sel 0 1 2 3 4 5 6 7;
#X obj 141 274 counter;
#X obj 151 364 % 8;
#X obj 170 447 bng 15 250 50 0 empty empty empty 17 7 0 10 -262144
-1 -1;
#X obj 189 447 bng 15 250 50 0 empty empty empty 17 7 0 10 -262144
-1 -1;
#X obj 225 449 bng 15 250 50 0 empty empty empty 17 7 0 10 -262144
-1 -1;
#X obj 244 449 bng 15 250 50 0 empty empty empty 17 7 0 10 -262144
-1 -1;
#X obj 289 450 bng 15 250 50 0 empty empty empty 17 7 0 10 -262144
-1 -1;
#X obj 138 187 metro 200;
#X obj 430 441 bng 15 250 50 0 empty empty empty 17 7 0 10 -262144
-1 -1;
#X obj 541 443 bng 15 250 50 0 empty empty empty 17 7 0 10 -262144
-1 -1;
#X obj 484 442 bng 15 250 50 0 empty empty empty 17 7 0 10 -262144
-1 -1;
#X obj 430 389 sel 0 1 2 3 4 5 6 7;
#X obj 428 358 % 8;
#X obj 447 441 bng 15 250 50 0 empty empty empty 17 7 0 10 -262144
-1 -1;
#X obj 466 441 bng 15 250 50 0 empty empty empty 17 7 0 10 -262144
-1 -1;
#X obj 502 443 bng 15 250 50 0 empty empty empty 17 7 0 10 -262144
-1 -1;
#X obj 521 443 bng 15 250 50 0 empty empty empty 17 7 0 10 -262144
-1 -1;
#X obj 566 444 bng 15 250 50 0 empty empty empty 17 7 0 10 -262144
-1 -1;
#X connect 1 0 23 0;
#X connect 2 0 16 0;
#X connect 3 0 10 0;
#X connect 3 0 10 1;
#X connect 4 0 7 1;
#X connect 5 0 0 0;
#X connect 6 0 5 0;
#X connect 6 0 9 0;
#X connect 7 0 0 0;
#X connect 7 0 0 1;
#X connect 8 0 7 0;
#X connect 9 0 0 1;
#X connect 10 0 5 1;
#X connect 10 1 9 1;
#X connect 11 0 4 0;
#X connect 14 0 17 0;
#X connect 14 0 28 0;
#X connect 15 0 11 0;
#X connect 15 1 18 0;
#X connect 15 2 19 0;
#X connect 15 3 13 0;
#X connect 15 4 20 0;
#X connect 15 5 21 0;
#X connect 15 6 12 0;
#X connect 15 7 22 0;
#X connect 16 0 14 0;
#X connect 17 0 15 0;
#X connect 21 0 4 0;
#X connect 23 0 2 0;
#X connect 27 0 24 0;
#X connect 27 1 29 0;
#X connect 27 2 30 0;
#X connect 27 3 26 0;
#X connect 27 4 31 0;
#X connect 27 5 32 0;
#X connect 27 6 25 0;
#X connect 27 7 33 0;
#X connect 28 0 27 0;
#X connect 31 0 3 0;
