#N canvas 1922 20 1916 1008 12;
#X obj 223 520 bng 15 250 50 0 empty empty empty 0 -6 0 8 -262144 -1
-1;
#X floatatom 295 556 5 0 0 0 - - -, f 5;
#X obj 256 590 del;
#X msg 223 616 1;
#X msg 256 616 0;
#X text 231 493 start;
#X obj 135 620 noise~;
#X obj 136 689 *~;
#X floatatom 619 801 5 0 0 0 - - -, f 5;
#X obj 495 1749 dac~, f 23;
#X obj 135 930 delwrite~ buffer 1000;
#X obj 404 677 z~ 1;
#X obj 404 706 *~ 0.5;
#X obj 317 743 +~;
#X floatatom 289 481 7 0 0 0 - - -, f 7;
#X text 354 490 Frequency (Hz.);
#X text 459 676 Delay by 1 Sample;
#X text 461 721 calculates average;
#X text 668 799 damping factor (between 0 and 1);
#X text 346 556 duration of one period (ms);
#X obj 495 1431 reverb;
#X obj 203 11 tgl 15 0 empty empty empty 17 7 0 10 -262144 -1 -1 1
1;
#X obj 295 525 expr 1000 / $f1;
#X obj 623 735 hsl 113 15 0 1 0 0 empty empty empty -2 -8 0 10 -262144
-1 -1 7050 1;
#X obj 316 647 delread~ buffer 1000;
#X obj 314 690 *~ 0.5;
#X obj 195 827 *~;
#X obj 210 293 bng 15 250 50 0 empty empty empty 17 7 0 10 -262144
-1 -1;
#X obj 321 295 bng 15 250 50 0 empty empty empty 17 7 0 10 -262144
-1 -1;
#X obj 264 294 bng 15 250 50 0 empty empty empty 17 7 0 10 -262144
-1 -1;
#X obj 210 241 sel 0 1 2 3 4 5 6 7;
#X obj 198 120 counter;
#X obj 208 210 % 8;
#X obj 227 293 bng 15 250 50 0 empty empty empty 17 7 0 10 -262144
-1 -1;
#X obj 246 293 bng 15 250 50 0 empty empty empty 17 7 0 10 -262144
-1 -1;
#X obj 282 295 bng 15 250 50 0 empty empty empty 17 7 0 10 -262144
-1 -1;
#X obj 301 295 bng 15 250 50 0 empty empty empty 17 7 0 10 -262144
-1 -1;
#X obj 346 296 bng 15 250 50 0 empty empty empty 17 7 0 10 -262144
-1 -1;
#X obj 197 58 metro 120;
#X obj 422 1131 crushdelay, f 13;
#X obj 1025 487 drums 1;
#X obj 496 1378 *~;
#X obj 548 1202 vsl 15 128 0 1 0 0 empty empty empty 0 -9 0 10 -262144
-1 -1 0 1;
#X obj 1173 1606 *~;
#X obj 1230 1381 vsl 15 128 0 1 0 0 empty empty empty 0 -9 0 10 -262144
-1 -1 0 1;
#X obj 1021 389 bng 15 250 50 0 empty empty empty 17 7 0 10 -262144
-1 -1;
#X obj 680 208 bng 15 250 50 0 empty empty empty 17 7 0 10 -262144
-1 -1;
#X obj 684 261 TogEdge;
#X obj 683 300 bng 15 250 50 0 empty empty empty 17 7 0 10 -262144
-1 -1;
#X obj 730 300 bng 15 250 50 0 empty empty empty 17 7 0 10 -262144
-1 -1;
#X obj 746 354 TogEdge;
#X obj 740 403 bng 15 250 50 0 empty empty empty 17 7 0 10 -262144
-1 -1;
#X obj 802 417 bng 15 250 50 0 empty empty empty 17 7 0 10 -262144
-1 -1;
#X obj 839 445 TogEdge;
#X obj 830 506 bng 15 250 50 0 empty empty empty 17 7 0 10 -262144
-1 -1;
#X obj 895 508 bng 15 250 50 0 empty empty empty 17 7 0 10 -262144
-1 -1;
#X obj 1149 655 drums 1;
#X obj 1426 1611 *~;
#X obj 1483 1386 vsl 15 128 0 1 0 0 empty empty empty 0 -9 0 10 -262144
-1 -1 0 1;
#X obj 1113 613 bng 15 250 50 0 empty empty empty 17 7 0 10 -262144
-1 -1;
#X obj 1018 279 bng 15 250 50 0 empty empty empty 17 7 0 10 -262144
-1 -1;
#X obj 1129 281 bng 15 250 50 0 empty empty empty 17 7 0 10 -262144
-1 -1;
#X obj 1072 280 bng 15 250 50 0 empty empty empty 17 7 0 10 -262144
-1 -1;
#X floatatom 1016 163 5 0 0 0 - - -, f 5;
#X obj 1018 227 sel 0 1 2 3 4 5 6 7;
#X obj 1016 196 % 8;
#X obj 1035 279 bng 15 250 50 0 empty empty empty 17 7 0 10 -262144
-1 -1;
#X obj 1054 279 bng 15 250 50 0 empty empty empty 17 7 0 10 -262144
-1 -1;
#X obj 1090 281 bng 15 250 50 0 empty empty empty 17 7 0 10 -262144
-1 -1;
#X obj 1109 281 bng 15 250 50 0 empty empty empty 17 7 0 10 -262144
-1 -1;
#X obj 1154 282 bng 15 250 50 0 empty empty empty 17 7 0 10 -262144
-1 -1;
#X floatatom 208 169 5 0 0 0 - - -, f 5;
#X obj 455 1052 hsl 128 15 50 5000 1 0 empty empty empty -2 -8 0 10
-262144 -1 -1 5500 1;
#X text 602 1048 Delay amt;
#X obj 635 1082 hsl 128 15 0.01 1 1 0 empty empty empty -2 -8 0 10
-262144 -1 -1 11050 1;
#X text 777 1081 Delay feedback;
#X msg 343 393 87.31;
#X floatatom 455 1078 5 0 0 0 - - -, f 5;
#X floatatom 637 1119 5 0 0 0 - - -, f 5;
#X msg 448 406 77.78;
#X msg 642 462 69.3;
#X msg 674 543 98;
#X obj 236 1131 bob~;
#X connect 0 0 2 0;
#X connect 0 0 3 0;
#X connect 1 0 2 1;
#X connect 1 0 24 0;
#X connect 2 0 4 0;
#X connect 3 0 7 1;
#X connect 4 0 7 1;
#X connect 6 0 7 0;
#X connect 7 0 10 0;
#X connect 8 0 26 1;
#X connect 11 0 12 0;
#X connect 12 0 13 1;
#X connect 13 0 26 0;
#X connect 14 0 22 0;
#X connect 20 0 9 0;
#X connect 20 1 9 1;
#X connect 21 0 38 0;
#X connect 22 0 1 0;
#X connect 23 0 8 0;
#X connect 24 0 11 0;
#X connect 24 0 25 0;
#X connect 25 0 13 0;
#X connect 26 0 10 0;
#X connect 26 0 82 0;
#X connect 27 0 0 0;
#X connect 30 0 27 0;
#X connect 30 1 33 0;
#X connect 30 2 34 0;
#X connect 30 3 29 0;
#X connect 30 4 35 0;
#X connect 30 5 36 0;
#X connect 30 6 28 0;
#X connect 30 7 37 0;
#X connect 31 0 63 0;
#X connect 31 0 71 0;
#X connect 32 0 30 0;
#X connect 34 0 0 0;
#X connect 36 0 0 0;
#X connect 37 0 46 0;
#X connect 38 0 31 0;
#X connect 39 0 41 0;
#X connect 40 0 43 0;
#X connect 41 0 20 0;
#X connect 41 0 20 1;
#X connect 42 0 41 1;
#X connect 43 0 9 0;
#X connect 43 0 9 1;
#X connect 44 0 43 1;
#X connect 45 0 40 0;
#X connect 46 0 47 0;
#X connect 47 0 48 0;
#X connect 47 1 49 0;
#X connect 48 0 76 0;
#X connect 49 0 50 0;
#X connect 50 0 51 0;
#X connect 50 1 52 0;
#X connect 51 0 79 0;
#X connect 52 0 53 0;
#X connect 53 0 54 0;
#X connect 53 1 55 0;
#X connect 54 0 80 0;
#X connect 55 0 81 0;
#X connect 56 0 57 0;
#X connect 57 0 9 0;
#X connect 57 0 9 1;
#X connect 58 0 57 1;
#X connect 59 0 56 0;
#X connect 60 0 45 0;
#X connect 63 0 65 0;
#X connect 64 0 60 0;
#X connect 64 1 66 0;
#X connect 64 2 67 0;
#X connect 64 3 62 0;
#X connect 64 4 68 0;
#X connect 64 5 69 0;
#X connect 64 6 61 0;
#X connect 64 7 70 0;
#X connect 65 0 64 0;
#X connect 68 0 59 0;
#X connect 68 0 45 0;
#X connect 71 0 32 0;
#X connect 72 0 77 0;
#X connect 74 0 78 0;
#X connect 76 0 14 0;
#X connect 77 0 39 1;
#X connect 78 0 39 2;
#X connect 79 0 14 0;
#X connect 80 0 14 0;
#X connect 81 0 14 0;
#X connect 82 0 39 0;
#X connect 82 0 41 0;
