#N canvas 1922 18 1916 1015 12;
#X obj 378 317 freeverb~, f 10;
#X obj 44 59 hsl 128 15 0 3 0 0 empty empty empty -2 -8 0 10 -262144
-1 -1 0 1;
#X floatatom 44 86 5 0 0 0 - - -, f 5;
#X obj 44 135 hsl 128 15 0 1.1 0 0 empty empty empty -2 -8 0 10 -262144
-1 -1 0 1;
#X floatatom 44 162 5 0 0 0 - - -, f 5;
#X text 43 33 width;
#X text 43 111 roomsize;
#X msg 380 278 width \$1;
#X msg 454 278 roomsize \$1;
#X obj 377 376 outlet~;
#X obj 503 154 inlet~;
#X obj 565 155 inlet~;
#X obj 444 376 outlet~;
#X obj 46 218 hsl 128 15 0 1 0 0 empty empty empty -2 -8 0 10 -262144
-1 -1 0 1;
#X floatatom 46 247 5 0 0 0 - - -, f 5;
#X floatatom 100 355 5 0 0 0 - - -, f 5;
#X obj 100 321 expr 1-$f1;
#X msg 305 305 dry \$1;
#X msg 303 262 wet \$1;
#X text 46 194 dry/wet;
#X connect 0 0 9 0;
#X connect 0 1 12 0;
#X connect 1 0 2 0;
#X connect 2 0 7 0;
#X connect 3 0 4 0;
#X connect 4 0 8 0;
#X connect 7 0 0 0;
#X connect 8 0 0 0;
#X connect 10 0 0 0;
#X connect 11 0 0 1;
#X connect 13 0 14 0;
#X connect 14 0 16 0;
#X connect 14 0 18 0;
#X connect 15 0 17 0;
#X connect 16 0 15 0;
#X connect 17 0 0 0;
#X connect 18 0 0 0;
#X coords 0 -1 1 1 166 264 1 32 18;
